<?xml version="1.0" encoding="UTF-8" standalone="no"?>
<!-- Created with VectorDraw -->
<svg 
 	 width = "40.000000" 
 	 height = "85.000000" 
xmlns:dc="http://purl.org/dc/elements/1.1/"
xmlns:cc="http://web.resource.org/cc/"
xmlns:rdf="http://www.w3.org/1999/02/22-rdf-syntax-ns#"
 xmlns:svg="http://www.w3.org/2000/svg"
 xmlns="http://www.w3.org/2000/svg" 
 xmlns:sodipodi="http://inkscape.sourceforge.net/DTD/sodipodi-0.dtd"
 xmlns:inkscape="http://www.inkscape.org/namespaces/inkscape"
 >
<g inkscape:label="Background" inkscape:groupmode="layer" id="Background">
<path  style="fill:#d6ac63;fill-opacity:1.000000;stroke:none;" 
 d="M 25.788124,6.105562 C 25.851128,5.455563 26.154125,4.980562 26.459126,4.579563 C 27.136124,3.683563 29.081123,1.901562 30.268127,1.915562 C 30.586124,4.265562 27.782127,5.143562 26.536125,5.796562 C 26.354126,5.891563 25.971123,6.075562 25.788124,6.105562 M 17.342125,16.296562 C 17.342125,16.296562 17.205126,16.283562 17.205126,16.283562 C 17.216125,15.504562 16.637125,13.636562 16.866125,11.297562 C 17.035126,9.567562 17.153126,8.320562 17.560125,6.642563 C 17.627125,6.367561 17.738125,5.931562 17.762125,5.682564 C 17.772125,5.695562 17.787125,5.699562 17.789125,5.721561 C 17.789125,5.721561 18.260124,6.640562 18.260124,6.640562 C 18.441126,7.011562 18.494125,7.342564 18.587126,7.737562 C 18.872126,8.959562 18.801125,9.856564 18.677126,11.130562 C 18.599125,11.919563 18.406124,12.476562 18.335125,13.201563 C 18.090124,12.862562 18.313126,12.735563 18.279125,12.072563 C 18.257126,11.628563 18.273125,11.232563 18.238125,10.866562 C 18.199125,10.467564 18.113125,10.171562 18.008125,9.815563 C 18.008125,9.815563 17.690125,9.146563 17.690125,9.146563 C 17.601126,9.036564 17.658125,9.055563 17.507126,8.985561 C 17.543125,9.255562 17.635124,9.423561 17.677126,9.775562 C 17.839125,11.133562 17.713125,11.424562 17.759125,12.556562 C 17.759125,12.556562 17.608126,15.435562 17.608126,15.435562 C 17.574125,15.679562 17.383125,15.953562 17.342125,16.296562 C 24.230125,76.190559 17.342125,16.296562 17.342125,16.296562  zM 23.397125,13.614563 C 22.731125,13.551563 22.286125,13.373562 21.701124,13.317562 C 21.870125,13.133562 21.757126,13.221563 22.083122,13.173563 C 22.290123,13.144562 22.341125,13.144562 22.535126,13.111563 C 22.817123,13.064562 23.150124,12.995562 23.454124,12.933563 C 24.054123,12.811562 24.613125,12.692562 25.215126,12.557562 C 25.991127,12.384563 27.868126,11.835562 28.128124,11.078562 C 27.830124,11.127562 27.939125,11.203562 27.443123,11.461563 C 25.574127,12.435562 24.210125,12.403563 22.190125,12.699562 C 21.903126,12.741562 21.559126,12.829563 21.201124,12.796562 C 22.178123,11.623562 24.755127,10.909563 26.425125,10.698563 C 26.951126,10.632563 29.890125,10.363564 30.400124,10.412563 C 30.182125,11.050562 30.176125,11.544563 29.485123,12.174562 C 28.501125,13.072563 27.187126,13.405563 25.828125,13.589563 C 25.190125,13.674562 24.188126,13.688562 23.397125,13.614563 C 24.230125,76.190559 23.397125,13.614563 23.397125,13.614563  zM 11.964125,17.685562 C 12.017124,17.135563 12.041126,17.107563 12.206125,16.623562 C 12.539125,16.745562 12.854126,17.474564 12.957125,17.808563 C 13.132126,18.370560 13.243126,18.758560 13.311125,19.379562 C 13.430126,20.480560 13.556126,21.856560 13.445126,22.983562 C 13.183125,22.887562 13.042126,22.288563 12.867125,21.843563 C 12.699125,21.410561 12.569126,21.067562 12.428125,20.589561 C 12.190125,19.784561 11.858124,18.772560 11.964125,17.685562 C 24.230125,76.190559 11.964125,17.685562 11.964125,17.685562  zM 13.491125,30.249561 C 13.491125,30.249561 13.792126,28.581562 13.792126,28.581562 C 14.111126,28.529564 14.265125,28.008564 14.642124,27.418564 C 15.498125,26.074562 17.294125,23.996563 18.595125,23.201561 C 18.595125,23.201561 19.800125,22.387562 19.800125,22.387562 C 20.261126,22.084564 21.973125,21.121563 22.461124,21.057564 C 22.461124,21.057564 18.477125,26.214561 18.477125,26.214561 C 18.064125,26.712563 16.806126,28.144562 16.254126,28.515564 C 16.004124,28.683563 15.855125,28.803562 15.610125,28.948563 C 15.610125,28.948563 13.721125,30.147564 13.721125,30.147564 C 13.552124,30.266563 13.716125,30.213562 13.491125,30.249561 C 24.230125,76.190559 13.491125,30.249561 13.491125,30.249561  zM 13.446125,30.596561 C 13.458126,30.585564 14.231125,30.293564 14.854126,29.924564 C 14.854126,29.924564 16.197124,29.199562 16.197124,29.199562 C 17.077126,28.677563 17.811125,27.978561 18.507126,27.226562 C 20.054125,25.555565 20.291124,25.068562 21.434126,23.661560 C 21.617125,23.437561 21.704124,23.245560 21.896126,23.013565 C 22.060125,22.816563 22.229126,22.508560 22.397125,22.409561 C 22.286125,23.551563 21.994125,24.927563 21.414125,25.890564 C 21.262125,26.143562 21.164125,26.280563 21.018126,26.544563 C 20.779125,26.982563 19.858126,28.004562 19.439125,28.266563 C 19.006124,28.537563 19.028126,28.626564 18.194124,29.106564 C 16.850124,29.882561 15.396126,30.206562 13.918125,30.534561 C 13.918125,30.534561 13.446125,30.596561 13.446125,30.596561 C 24.230125,76.190559 13.446125,30.596561 13.446125,30.596561  zM 2.663125,31.665562 C 2.935125,31.696564 3.003125,31.751564 3.339125,31.797562 C 3.339125,31.797562 5.482124,32.288563 5.482124,32.288563 C 6.952126,32.729561 8.985125,33.510563 10.156124,34.438564 C 10.847126,34.985561 11.315125,35.335564 11.669125,36.183563 C 11.034126,35.973564 9.185125,34.704563 8.480125,34.251564 C 8.480125,34.251564 6.453125,33.109562 6.453125,33.109562 C 6.500126,33.391563 6.467125,33.251564 6.692125,33.411564 C 6.692125,33.411564 8.924126,35.191563 8.924126,35.191563 C 9.437126,35.608562 11.172125,36.798561 11.944126,36.888561 C 11.944126,36.888561 11.899124,37.359562 11.899124,37.359562 C 11.203125,37.277561 9.808125,36.832561 9.191124,36.523563 C 8.774124,36.313564 8.448124,36.122562 8.066124,35.888561 C 6.875126,35.159561 4.825125,33.464561 3.770124,32.440563 C 3.287125,31.971561 3.307125,32.041561 2.897125,32.095562 C 2.818125,31.950562 2.742125,31.809563 2.663125,31.665562 C 24.230125,76.190559 2.663125,31.665562 2.663125,31.665562  zM 3.810125,33.333561 C 3.928125,33.217564 3.860125,33.253563 3.934125,33.356564 C 3.934125,33.356564 4.585125,34.004562 4.585125,34.004562 C 4.871125,34.235561 5.058125,34.454563 5.345125,34.688564 C 5.627125,34.917564 5.868125,35.105564 6.152124,35.334564 C 7.787125,36.654564 9.540125,37.610561 11.919125,37.835564 C 11.919125,37.835564 11.854126,38.507561 11.854126,38.507561 C 11.321125,38.413563 10.996124,38.468563 10.423126,38.369564 C 8.144125,37.969563 6.648125,36.836563 5.236125,35.148563 C 4.973125,34.836563 4.753125,34.578564 4.493125,34.265564 C 4.337125,34.077564 3.937125,33.427563 3.810125,33.333561 C 24.230125,76.190559 3.810125,33.333561 3.810125,33.333561  zM 19.323126,37.589561 C 19.286125,37.969563 19.362125,39.306564 19.271126,40.230564 C 19.058125,42.393562 18.757126,43.946564 17.883125,45.857563 C 17.676125,46.309563 17.502125,46.773563 17.266125,47.223564 C 16.679125,48.335564 15.161125,51.106567 14.081125,51.679565 C 14.170124,51.444565 15.147125,50.331558 15.417126,49.970566 C 15.417126,49.970566 16.265125,48.804562 16.265125,48.804562 C 16.411125,48.528561 16.520124,48.392563 16.645124,48.132561 C 17.410126,46.536564 17.785126,44.910561 17.962126,43.021561 C 18.020124,42.410561 18.232124,41.796562 18.202126,41.097561 C 18.180124,40.546562 18.281124,39.779564 18.346125,39.124561 C 18.346125,39.124561 18.083124,39.022564 18.083124,39.022564 C 18.160126,38.816563 18.501125,38.523563 18.674126,38.314564 C 18.799126,38.160561 18.862125,38.086563 18.992125,37.945564 C 18.992125,37.945564 19.323126,37.589561 19.323126,37.589561 C 24.230125,76.190559 19.323126,37.589561 19.323126,37.589561  zM 4.456125,42.217564 C 4.951125,42.263561 5.699125,42.621563 6.083126,42.816563 C 6.943125,43.255562 6.795124,43.220562 7.487125,43.658562 C 8.145126,44.075562 9.322124,45.030563 9.863125,45.630562 C 10.051125,45.837563 10.173126,45.921562 10.363125,46.152561 C 11.498125,47.520561 12.018124,48.573563 12.664125,50.227562 C 12.805126,50.584564 12.909126,50.523560 12.902126,51.022568 C 11.157125,49.618561 9.972126,49.091568 8.061125,47.152561 C 7.963125,47.053562 7.935125,46.997562 7.836124,46.899563 C 7.836124,46.899563 7.179125,46.193562 7.179125,46.193562 C 6.554125,45.513561 5.658125,44.342564 5.218124,43.577564 C 4.959126,43.124561 4.710125,42.679562 4.456125,42.217564 C 24.230125,76.190559 4.456125,42.217564 4.456125,42.217564  zM 14.016125,50.927567 C 13.671125,50.322563 13.839125,49.212563 13.894125,48.674564 C 13.943125,48.196564 13.889126,47.971561 13.943125,47.460564 C 14.206125,44.916561 14.247124,44.002563 15.794125,41.709564 C 16.015125,41.380562 17.140125,39.922562 17.385124,39.780563 C 17.073126,42.967564 16.966125,45.978561 15.420124,48.775562 C 15.051125,49.441559 14.258125,50.223564 14.016125,50.927567 C 24.230125,76.190559 14.016125,50.927567 14.016125,50.927567  zM 3.786125,42.018562 C 3.786125,42.018562 4.059125,42.044563 4.059125,42.044563 C 4.109125,42.414562 4.568125,43.297562 4.757125,43.644562 C 5.051125,44.184563 5.328125,44.632561 5.665125,45.136562 C 6.433125,46.282562 6.728125,46.534561 7.546125,47.448563 C 8.350124,48.344563 11.611126,50.926559 12.645126,51.544563 C 13.010124,51.763565 13.166126,51.732559 13.126125,52.270561 C 11.807125,52.115562 10.454124,51.513565 9.379124,50.851562 C 7.486126,49.686562 5.919125,48.103561 4.793125,46.214561 C 4.045125,44.955563 3.637125,43.554562 3.786125,42.018562 C 24.230125,76.190559 3.786125,42.018562 3.786125,42.018562  zM 10.647125,55.765564 C 10.666126,55.568558 10.772125,55.425568 10.835125,55.240562 C 10.995125,55.336563 11.323124,55.439560 11.541126,55.537567 C 11.541126,55.537567 12.811125,56.240562 12.811125,56.240562 C 13.451126,56.691559 13.861126,56.949562 14.453125,57.568558 C 14.912125,58.048561 14.759125,57.848564 14.966125,58.453568 C 15.048126,58.693558 15.067125,58.610565 15.105125,58.834564 C 14.294125,58.354561 11.487125,57.410561 10.882126,56.440567 C 10.792126,56.296562 10.628124,55.953568 10.647125,55.765564 C 24.230125,76.190559 10.647125,55.765564 10.647125,55.765564  zM 17.653126,60.977562 C 17.851126,58.951561 18.204124,53.124557 20.325125,51.999557 C 20.544125,52.587563 20.755125,54.651566 20.686125,55.359558 C 20.518126,57.062561 20.492125,57.671562 19.505125,59.208565 C 19.107124,59.828560 18.289125,60.638565 17.653126,60.977562 C 24.230125,76.190559 17.653126,60.977562 17.653126,60.977562  zM 25.303123,63.128563 C 24.936127,64.198563 24.963127,67.801559 25.008125,68.751564 C 25.039124,69.427559 25.239124,71.764565 25.440125,72.301559 C 24.976128,72.245560 24.457123,71.600563 24.325127,71.224564 C 23.535126,68.967560 24.033127,65.628563 24.272125,63.097565 C 24.272125,63.097565 24.807125,59.531563 24.807125,59.531563 C 24.993126,58.805557 25.144127,58.067566 25.377125,57.432564 C 25.377125,57.432564 26.082123,55.870560 26.082123,55.870560 C 26.149124,55.766563 26.162125,55.757561 26.241127,55.682564 C 26.241127,55.682564 26.248123,57.717560 26.248123,57.717560 C 26.401123,59.806564 26.790123,61.420563 26.884125,63.391563 C 26.913124,63.986565 27.026123,65.806564 26.985123,66.405563 C 26.901123,67.614563 26.895126,68.386566 26.609123,69.565559 C 26.443123,70.251564 26.220123,70.792564 26.011124,71.402565 C 26.011124,71.402565 25.918125,70.983566 25.918125,70.983566 C 25.697124,68.907562 25.522125,67.545563 25.712128,65.335564 C 25.746124,64.934563 25.697124,64.721565 25.745125,64.253563 C 25.790123,63.784561 25.879128,63.604561 25.926125,63.118561 C 25.698128,63.097565 25.526123,63.065559 25.303123,63.128563 C 24.230125,76.190559 25.303123,63.128563 25.303123,63.128563  zM 8.537125,61.807564 C 8.537125,61.807564 10.914125,62.603561 10.914125,62.603561 C 11.238125,62.715561 12.991125,63.434563 13.146126,63.580559 C 13.156124,63.588562 13.171125,63.601562 13.180126,63.609566 C 13.180126,63.609566 13.608124,64.502563 13.608124,64.502563 C 13.805126,64.859566 13.938126,65.086563 14.160126,65.418564 C 14.569126,66.026566 14.999125,66.519562 15.518124,67.039566 C 16.148125,67.670563 17.296125,68.621559 18.081125,69.047562 C 18.275126,69.150566 18.397125,69.199562 18.598125,69.307564 C 18.811125,69.418564 18.873125,69.470566 19.110125,69.575562 C 20.848125,70.346565 20.828125,70.142563 22.159126,70.505562 C 22.503124,70.601562 23.140125,71.337563 23.297127,71.626564 C 22.882126,71.587563 22.325127,71.673561 21.916124,71.635559 C 21.244125,71.571564 19.959126,71.198563 19.345125,70.995560 C 18.583124,70.738564 16.798124,69.851562 16.192125,69.401566 C 15.270126,68.719559 14.537125,68.317566 13.502125,67.436562 C 13.367125,67.324562 13.250126,67.208565 13.104126,67.080559 C 11.963125,66.060562 10.683125,64.806564 9.756126,63.604561 C 9.474125,63.240562 8.696125,62.192566 8.537125,61.807564 C 24.230125,76.190559 8.537125,61.807564 8.537125,61.807564  zM 8.026125,62.099564 C 8.153126,61.974564 8.047125,61.990562 8.318125,62.479561 C 8.318125,62.479561 11.061125,66.135559 11.061125,66.135559 C 11.302124,66.389565 11.541126,66.587563 11.784126,66.848564 C 12.017124,67.097565 12.282125,67.309563 12.535126,67.536560 C 12.535126,67.536560 15.006126,69.432564 15.006126,69.432564 C 15.902126,70.017563 16.857124,70.580559 17.864124,71.012566 C 19.624125,71.764565 21.445126,72.179565 23.390125,72.021561 C 23.633125,72.000565 23.672127,71.935562 23.797127,72.144562 C 23.357124,72.202560 22.927124,72.228561 22.485123,72.304565 C 22.093124,72.367561 21.653126,72.502563 21.260124,72.568565 C 19.916124,72.790565 19.585125,72.897560 18.083124,72.755562 C 15.330124,72.495560 12.621124,71.155563 10.937126,69.144562 C 10.937126,69.144562 9.880125,67.649559 9.880125,67.649559 C 8.710125,65.523560 8.367125,64.914566 8.078125,62.365562 C 8.078125,62.365562 8.038124,62.149559 8.038124,62.149559 C 8.037125,62.138565 8.034124,62.115562 8.026125,62.099564 C 24.230125,76.190559 8.026125,62.099564 8.026125,62.099564  zM 14.174126,64.108566 C 14.728125,64.207565 17.890125,66.170563 18.373125,66.520561 C 19.401125,67.270561 19.242125,67.173561 20.138124,67.998566 C 20.392124,68.233566 21.468124,69.490562 21.619125,69.769562 C 20.834126,69.694565 18.819124,68.713562 18.170124,68.233566 C 17.258125,67.559563 17.183125,67.573563 16.331125,66.814560 C 15.707125,66.257561 14.488125,64.861565 14.174126,64.108566 C 24.230125,76.190559 14.174126,64.108566 14.174126,64.108566  zM 27.650124,68.033562 C 27.808125,66.414566 27.806126,65.723564 27.716125,64.141563 C 27.685127,63.605560 27.686127,63.106560 27.615128,62.613564 C 27.354126,60.754562 26.973125,58.432564 26.781124,56.668564 C 26.721123,56.127563 26.823128,55.398560 26.566124,55.172562 C 26.678123,55.045563 26.558125,55.061562 26.930122,55.496567 C 27.053123,55.640564 27.121124,55.709564 27.226128,55.875565 C 27.726128,56.650558 27.794125,56.675568 28.259125,57.637558 C 28.959126,59.084564 29.540123,61.414566 29.361126,63.242561 C 29.098125,65.926559 28.973125,66.596565 27.870125,69.047562 C 27.768127,69.273560 27.694122,69.470566 27.579124,69.675560 C 27.579124,69.675560 27.257126,70.194565 27.257126,70.194565 C 27.251125,70.200562 27.239124,70.220566 27.227127,70.234566 C 27.355125,69.539566 27.559128,68.956566 27.650124,68.033562 C 24.230125,76.190559 27.650124,68.033562 27.650124,68.033562  zM 17.450125,61.635559 C 18.471125,61.220566 19.354124,60.363564 20.017124,59.517563 C 21.651125,57.431564 21.634125,54.427567 21.012125,51.940567 C 20.916124,51.557564 20.782125,51.339561 20.366125,51.519562 C 20.277124,51.555557 20.035126,51.712563 19.950125,51.777557 C 19.677126,51.984558 19.475124,52.188568 19.238125,52.430557 C 18.819124,52.859558 18.463125,53.554565 18.207125,54.202560 C 17.225124,56.696564 17.340124,58.540558 17.113125,60.856560 C 16.765125,60.550560 15.619125,57.355560 15.460125,56.811562 C 15.348125,56.427567 15.248125,56.123566 15.128124,55.780563 C 14.961124,55.300568 14.252125,52.751564 14.289125,52.378563 C 14.295124,52.310562 14.712124,52.001564 14.799126,51.935562 C 14.799126,51.935562 16.712126,49.710564 16.712126,49.710564 C 17.837126,48.056564 19.274124,45.040562 19.663124,43.172562 C 19.663124,43.172562 20.112125,40.104561 20.112125,40.104561 C 20.174126,39.479561 20.173124,36.581562 19.841125,36.549564 C 19.228125,36.491562 19.020124,37.099564 18.718124,37.462563 C 18.388124,37.857563 18.102125,38.233562 17.745125,38.629562 C 16.378124,40.148563 15.017124,41.647564 14.166126,43.517563 C 13.641125,44.674564 13.562126,45.719563 13.410126,47.272564 C 13.410126,47.272564 12.917126,42.039562 12.917126,42.039562 C 12.750126,38.750561 12.879124,35.797562 13.219124,32.325562 C 13.276125,31.756561 13.372124,31.476562 13.426125,30.919563 C 13.875126,31.186562 16.383125,30.387562 16.872126,30.229561 C 17.370125,30.067562 17.912125,29.786564 18.375126,29.543564 C 19.821125,28.786564 21.043125,27.720562 21.920124,26.343563 C 22.528126,25.389565 23.028126,23.704563 23.162125,22.343563 C 23.204124,21.916565 23.157127,21.651562 23.195126,21.326561 C 23.195126,21.326561 23.209126,20.883560 23.209126,20.883560 C 23.205124,20.869560 23.198128,20.850563 23.195126,20.836563 C 23.195126,20.836563 23.135124,20.509563 23.135124,20.509563 C 22.648125,20.462563 22.092125,20.738564 21.684126,20.953560 C 21.684126,20.953560 20.350124,21.614563 20.350124,21.614563 C 19.914125,21.848564 19.569124,22.098564 19.142124,22.349564 C 19.142124,22.349564 17.958124,23.191563 17.958124,23.191563 C 17.211124,23.797562 16.486126,24.405563 15.856125,25.111565 C 15.689125,25.298561 15.558125,25.472565 15.378124,25.666565 C 14.872124,26.212563 14.512125,26.915562 14.102125,27.523563 C 14.009125,27.444561 14.052124,27.452564 14.088125,27.356564 C 14.088125,27.356564 14.126125,27.251564 14.126125,27.251564 C 14.135124,27.222561 14.175125,27.053562 14.183125,27.019562 C 14.183125,27.019562 14.534126,25.636562 14.534126,25.636562 C 14.963125,24.177563 15.418125,22.761562 15.992125,21.366562 C 15.992125,21.366562 19.942125,13.917562 19.942125,13.917562 C 20.328125,13.301563 20.370125,13.484562 20.937124,13.688562 C 21.096125,13.745562 21.254126,13.785563 21.385124,13.819563 C 21.784124,13.926563 21.941126,13.925562 22.394127,13.992561 C 22.878124,14.062563 22.838127,14.103563 23.360123,14.093563 C 24.560127,14.072563 24.905125,14.208563 26.354126,13.989563 C 26.716125,13.934563 26.878124,13.886562 27.201126,13.798563 C 28.041122,13.567562 28.755127,13.308563 29.500126,12.865562 C 29.894127,12.630562 30.371124,12.196562 30.631126,11.811562 C 30.970123,11.307562 31.119125,10.807564 31.197124,10.010563 C 30.743126,9.859562 30.366127,9.994562 29.843124,10.046562 C 29.843124,10.046562 27.068123,10.338562 27.068123,10.338562 C 25.761124,10.504562 24.434128,10.722563 23.243126,11.178562 C 22.642124,11.407562 21.513124,11.824562 21.109125,12.309563 C 21.109125,12.309563 23.776123,8.735561 23.776123,8.735561 C 26.357124,5.627563 25.290123,6.976562 28.719124,5.173561 C 29.111126,4.967564 29.491127,4.744562 29.810127,4.449562 C 29.909126,4.357563 30.022125,4.240562 30.117126,4.139563 C 30.688126,3.541561 31.113125,2.488564 30.988125,1.575562 C 30.415123,1.521563 30.284126,1.493563 29.830124,1.618563 C 28.899124,1.876562 28.092125,2.343563 27.354126,2.942562 C 26.540123,3.605562 25.224125,4.810562 25.109123,5.970562 C 25.063126,6.437563 25.335125,6.486563 24.607124,6.872562 C 24.698128,7.174562 24.703125,6.886562 24.787125,7.160563 C 24.468124,7.328564 24.208122,7.704563 23.957123,7.973562 C 22.828125,9.185562 21.478125,10.776562 20.509125,12.118563 C 20.509125,12.118563 18.673124,14.656563 18.673124,14.656563 C 19.629126,11.864563 20.242125,7.248562 18.126125,4.947563 C 17.850124,4.648563 17.388124,4.677563 17.322124,5.157562 C 17.195126,6.080563 17.000126,6.752563 16.785126,7.670563 C 16.284124,9.819563 15.786125,14.174562 16.960125,16.230562 C 17.299126,16.824562 17.024124,16.692562 16.968124,17.275562 C 16.938126,17.578560 17.117125,17.248562 16.917126,17.659561 C 16.917126,17.659561 16.249125,18.895561 16.249125,18.895561 C 15.978125,19.463562 15.718124,20.018562 15.440125,20.633560 C 15.440125,20.633560 14.205124,23.813560 14.205124,23.813560 C 14.169125,23.918564 14.168125,23.930565 14.129124,24.023563 C 14.129124,24.023563 14.008125,24.254562 14.008125,24.254562 C 14.211124,22.191563 14.513126,17.650562 12.779125,16.276562 C 12.470125,16.031563 12.019125,15.760563 11.714125,16.182562 C 11.093124,17.035561 11.230125,18.791565 11.445126,19.710564 C 11.812126,21.279564 13.160126,24.398563 13.204124,24.719563 C 12.453125,24.233562 10.441124,23.168564 9.298126,23.059563 C 6.320126,22.777565 6.196125,27.123562 11.816124,26.366562 C 12.261124,26.306564 13.059124,26.257561 13.366125,25.888565 C 12.979126,25.624565 12.279125,26.328560 10.101124,26.121563 C 9.141125,26.030563 7.942125,25.635563 8.053125,24.502563 C 8.192125,23.082565 8.874125,23.301563 10.216125,23.800560 C 10.697124,23.979561 12.924126,25.050560 13.236126,25.436562 C 13.348125,25.578560 13.338125,25.383560 13.311125,25.746563 C 13.311125,25.746563 13.584126,25.772560 13.584126,25.772560 C 13.474125,26.368561 13.248125,26.997562 13.099125,27.595562 C 12.780125,28.877563 12.523125,30.298561 12.392124,31.633564 C 12.349125,32.058563 12.263126,32.184563 12.221125,32.630562 C 12.221125,32.630562 12.065125,34.247562 12.065125,34.247562 C 12.009125,34.816563 12.049126,35.108562 11.994125,35.665562 C 11.638126,35.352562 10.956125,34.074562 9.036125,33.237564 C 7.824125,32.709564 7.689125,32.599564 6.356125,32.129562 C 5.446125,31.809563 4.253125,31.471561 3.243125,31.373562 C 2.444125,31.294563 2.385125,31.064564 1.659125,31.358562 C 1.741125,31.845562 3.719125,34.261562 4.112125,34.877563 C 4.737125,35.856564 6.221125,37.252563 7.293125,37.807564 C 7.807125,38.074562 8.144125,38.270561 8.772125,38.463562 C 9.582125,38.714561 11.073124,39.149563 11.902126,38.710564 C 11.827126,39.486561 11.872124,40.313564 11.909126,41.056564 C 11.909126,41.056564 12.190125,45.533562 12.190125,45.533562 C 12.213125,45.893562 12.297125,47.389561 12.468124,47.721561 C 12.332125,47.875561 12.333126,47.556564 12.085125,47.227562 C 12.085125,47.227562 10.078125,44.838562 10.078125,44.838562 C 8.750126,43.441563 5.982124,41.751564 4.106125,41.573563 C 3.612125,41.526562 3.024125,41.352562 2.960125,42.006561 C 2.763124,44.020561 3.314125,45.514561 4.251125,46.901562 C 5.026125,48.048561 5.929125,49.101562 7.021126,49.978561 C 7.021126,49.978561 9.029125,51.380562 9.029125,51.380562 C 10.076126,52.030563 11.657125,52.604561 13.285126,52.757561 C 13.405125,53.077560 13.435125,53.484558 13.543125,53.849564 C 13.771126,54.620560 14.123125,56.391563 14.516125,57.081558 C 14.403126,57.208557 14.393124,57.050568 14.308125,56.940567 C 13.731125,56.204559 12.771126,55.689560 11.946125,55.265564 C 11.359125,54.963562 10.726124,54.475563 10.242125,55.054565 C 9.080124,56.446564 11.242125,57.658562 12.298126,58.200562 C 12.589125,58.347565 12.859125,58.440567 13.129124,58.577560 C 13.129124,58.577560 14.861126,59.401566 14.861126,59.401566 C 15.208126,59.577560 15.410126,59.607559 15.573124,59.936562 C 16.095125,60.997566 16.540125,62.054565 17.115126,63.081566 C 17.115126,63.081566 18.697124,65.698563 18.697124,65.698563 C 18.782125,65.827560 18.863125,65.933563 18.948126,66.052559 C 18.948126,66.052559 18.306126,65.706566 18.306126,65.706566 C 18.107124,65.560562 17.912125,65.448563 17.709126,65.323563 C 17.504126,65.196564 17.325125,65.087563 17.103125,64.948563 C 14.823124,63.542564 12.060125,62.239563 9.457125,61.553566 C 8.999125,61.435562 7.341125,60.629562 7.252125,61.547562 C 7.115126,62.933563 7.610125,64.887566 8.041124,65.858566 C 8.128124,66.053566 8.127125,66.145561 8.216125,66.337563 C 8.289125,66.495560 8.349125,66.618561 8.435125,66.776566 C 9.569126,68.891563 10.851124,70.513565 13.048126,71.825562 C 15.481125,73.277565 18.879126,73.665565 21.703125,73.023560 C 22.147125,72.919563 22.717125,72.786560 23.218124,72.726562 C 24.625126,72.559563 24.264126,72.618561 25.667126,73.969559 C 25.854126,74.152565 25.976128,74.250565 26.167126,74.431564 C 26.565125,74.805565 28.621124,76.636566 28.719124,76.816559 C 27.023125,76.515564 26.210125,75.690559 24.362125,75.969559 C 23.982124,76.026566 23.494125,75.961563 23.458122,76.318565 C 23.359123,77.333565 24.955124,77.816559 25.787125,77.895561 C 26.716125,77.983566 28.329124,77.810562 29.208122,77.476562 C 29.325127,77.430565 29.337128,77.420563 29.426125,77.359566 C 29.426125,77.359566 30.998123,78.622566 30.998123,78.622566 C 31.105125,78.706566 31.179123,78.755562 31.267124,78.837563 C 31.267124,78.837563 31.486126,79.094559 31.486126,79.094559 C 31.673126,79.266563 31.523125,79.126564 31.751125,79.249565 C 32.251125,79.520561 32.676125,79.964561 33.140125,80.288559 C 33.140125,80.288559 39.105125,84.339561 39.105125,84.339561 C 39.105125,84.339561 39.210125,83.318565 39.210125,83.318565 C 39.210125,83.318565 37.861126,82.526566 37.861126,82.526566 C 37.861126,82.526566 35.504124,80.909561 35.504124,80.909561 C 35.301125,80.760559 35.124126,80.665565 34.921124,80.514565 C 34.921124,80.514565 33.750126,79.668564 33.750126,79.668564 C 33.531124,79.524559 33.414124,79.418564 33.200127,79.248566 C 32.015125,78.308563 31.845123,78.832565 32.368126,76.666565 C 32.650124,75.500565 33.078125,73.486565 32.561127,72.338562 C 31.971123,71.027565 30.257126,70.974564 30.098125,72.605560 C 29.889126,74.737564 30.634125,76.093559 30.805122,77.353561 C 30.281124,77.163559 27.185127,74.209564 26.576126,73.665565 C 26.576126,73.665565 25.981125,73.097565 25.981125,73.097565 C 25.981125,73.097565 26.725124,72.258560 26.725124,72.258560 C 27.978127,70.581566 28.921127,68.768562 29.539124,66.755562 C 30.063126,65.048561 30.372124,62.693565 30.060127,60.938560 C 29.810127,59.535561 29.633125,58.519562 28.953125,57.255562 C 28.953125,57.255562 28.357124,56.193558 28.357124,56.193558 C 28.114124,55.802567 27.111126,54.408562 26.711124,54.371567 C 26.324127,54.334564 26.194122,54.568558 26.021126,54.826561 C 24.682125,56.812561 24.054123,58.967560 23.806126,61.492561 C 23.639126,63.205559 22.938126,68.279564 23.364124,70.082565 C 23.364124,70.082565 23.410126,70.230560 23.410126,70.230560 C 23.413124,70.242561 23.420124,70.261566 23.427124,70.277565 C 23.313126,70.406563 23.273125,70.207565 23.188126,70.101562 C 23.188126,70.101562 21.703125,68.331566 21.703125,68.331566 C 21.140125,67.651566 20.658125,66.907562 20.152124,66.185562 C 19.292126,64.955559 18.015125,62.985565 17.450125,61.635559 C 24.230125,76.190559 17.450125,61.635559 17.450125,61.635559  zM 30.797127,73.215561 C 30.861126,72.563560 31.774124,72.698563 31.970123,73.253563 C 32.364124,74.361565 31.588127,75.913559 31.480125,76.808563 C 31.250126,76.406563 30.738125,73.818565 30.797127,73.215561 C 24.230125,76.190559 30.797127,73.215561 30.797127,73.215561  zM 24.230125,76.190559 C 24.564125,76.195564 24.671127,76.094559 25.063126,76.132561 C 25.810127,76.204559 26.300125,76.407562 26.905125,76.618561 C 27.219124,76.728561 28.268127,77.017563 28.630127,76.933563 C 28.823128,76.887566 28.696125,76.998566 28.789124,76.823563 C 28.941124,76.948563 28.852127,76.911560 29.048126,76.984566 C 28.749123,77.316559 25.409126,78.025566 24.436127,76.700562 C 24.261124,76.465561 24.315125,76.439560 24.230125,76.190559 C 24.230125,76.190559 24.230125,76.190559 24.230125,76.190559  z"  />
</g>
</svg>
